<?xml version="1.0" encoding="utf-8"?>
<!-- Generator: Adobe Illustrator 14.0.0, SVG Export Plug-In . SVG Version: 6.00 Build 43363)  -->
<!DOCTYPE svg PUBLIC "-//W3C//DTD SVG 1.1//EN" "http://www.w3.org/Graphics/SVG/1.1/DTD/svg11.dtd">
<svg version="1.1" id="Layer_1" xmlns="http://www.w3.org/2000/svg" xmlns:xlink="http://www.w3.org/1999/xlink" x="0px" y="0px"
	 width="644px" height="644px" viewBox="0 0 644 644" enable-background="new 0 0 644 644" xml:space="preserve">
<circle fill-rule="evenodd" clip-rule="evenodd" fill="#111111" cx="323.743" cy="321.744" r="311.243"/>
<g>
	<path fill-rule="evenodd" clip-rule="evenodd" fill="#17C0E9" d="M178.216,72.065c-58.928,34.185-99.259,82.837-123.572,143.94
		c36.047,40.22,70.657,82.288,107.408,121.598C166.954,248.712,173.16,160.838,178.216,72.065z"/>
	<path fill-rule="evenodd" clip-rule="evenodd" fill="#17C0E9" d="M611.055,293.941c-0.707-5.662-1.416-11.323-2.123-16.984
		c-5.036-26.84-11.814-51.437-21.529-72.259c-54.881-3.311-109.119-7.445-163.774-11.045
		c59.215,68.667,117.985,137.913,177.478,206.226C610.162,369.03,613.99,334.117,611.055,293.941z"/>
	<path fill-rule="evenodd" clip-rule="evenodd" fill="#17C0E9" d="M35.544,348.667c0.708,5.661,1.417,11.323,2.125,16.984
		c5.036,26.838,11.815,51.436,21.529,72.259c55.593,3.074,110.333,7.244,165.531,10.824
		c-59.681-68.068-120.151-138.753-179.673-204.761C36.413,274.616,32.609,309.021,35.544,348.667z"/>
	<path fill-rule="evenodd" clip-rule="evenodd" fill="#17C0E9" d="M482.205,300.539c-5.62,90.096-10.666,180.634-15.433,271.396
		c58.892-34.392,99.708-82.839,124.817-143.502C555.697,385.068,518.723,343.095,482.205,300.539z"/>
	<path fill-rule="evenodd" clip-rule="evenodd" fill="#17C0E9" d="M73.109,463.532c-0.391,0.05-0.781,0.099-1.171,0.147
		c35.109,60.462,84.931,102.002,147.382,127.305c36.735-31.118,73.794-63.606,109.958-95.841c4.929-4.395,9.335-8.582,14.348-13.691
		C252.977,476.095,163.169,469.646,73.109,463.532z"/>
	<path fill-rule="evenodd" clip-rule="evenodd" fill="#17C0E9" d="M295.938,33.549c-5.662,0.708-11.323,1.416-16.984,2.124
		c-27.711,5.416-53.89,12.022-74.455,22.993c-3.778,53.106-6.476,107.053-10.313,160.113
		c66.88-59.196,134.932-117.483,200.88-177.403C365.627,34.133,333.204,30.727,295.938,33.549z"/>
	<path fill-rule="evenodd" clip-rule="evenodd" fill="#17C0E9" d="M367.647,606.936c27.272-5.227,52.666-11.915,73.354-22.262
		c2.465-54.129,5.797-107.581,8.996-161.138c-67.335,58.842-135.539,117.012-201.539,176.891
		c30.252,7.783,63.609,11.575,102.203,8.632C356.324,608.352,361.986,607.643,367.647,606.936z"/>
	<path fill-rule="evenodd" clip-rule="evenodd" fill="#17C0E9" d="M505.924,96.914c-4.525-3.476-9.049-6.951-13.574-10.428
		c-22.63-15.283-44.891-27.752-66.527-35.479c-40.932,36.709-81.998,72.379-122.976,108.726
		c90.463,6.148,181.028,13.02,271.435,18.723C558.706,150.33,536.563,123.065,505.924,96.914z"/>
</g>
</svg>
